<svg width="2933" height="1068" viewBox="0 0 2933 1068" fill="none" xmlns="http://www.w3.org/2000/svg">
<path d="M1068.13 534C1068.13 639.615 1036.8 742.859 978.119 830.675C919.436 918.49 836.027 986.935 738.44 1027.35C640.852 1067.77 533.47 1078.34 429.872 1057.74C326.274 1037.13 231.114 986.276 156.424 911.595C81.7335 836.914 30.869 741.764 10.2621 638.178C-10.3448 534.592 0.231399 427.223 40.6533 329.647C81.0753 232.071 149.527 148.672 237.354 89.9952C325.18 31.3185 428.435 0 534.063 0C675.705 0 811.546 56.2606 911.702 156.405C1011.86 256.549 1068.13 392.374 1068.13 534Z" fill="#ED357E"/>
<path d="M207 487.585V425H261.535V398.666C260.995 385.074 263.144 371.509 267.857 358.748C272.57 345.987 279.755 334.282 289.001 324.303C300.163 313.97 313.345 306.062 327.716 301.078C342.087 296.094 357.335 294.142 372.498 295.345C380.636 295.345 388.775 295.671 396.913 296.322C405.051 296.973 412.955 297.522 420.625 297.969V367.725C409.557 366.382 398.418 365.719 387.269 365.742C382.451 365.27 377.588 365.82 372.998 367.356C368.407 368.891 364.192 371.377 360.627 374.652C354.445 383.355 351.597 393.989 352.601 404.617V425H415.467V487.585H352.631V765.265H261.535V487.585H207Z" fill="#FEFEFE"/>
<path d="M581.607 765.265V489.294H463.35V427.167C479.445 427.593 495.541 426.366 511.385 423.505C526.015 421.025 540.108 416.039 553.042 408.767C565.299 401.763 575.946 392.261 584.292 380.877C593.261 368.17 599.02 353.481 601.077 338.065H676.975V765.265H581.607Z" fill="#FEFEFE"/>
<path d="M985.66 431.047C1012.08 447.97 1027.25 477.07 1031.17 518.346H942.939C941.701 506.995 938.502 498.017 933.343 491.413C923.643 479.443 907.132 473.458 883.812 473.458C864.618 473.458 850.894 476.451 842.639 482.436C834.59 488.421 830.565 495.438 830.565 503.486C830.565 513.599 834.899 520.925 843.567 525.466C852.235 530.213 882.883 538.365 935.51 549.922C970.594 558.177 996.908 570.663 1014.45 587.38C1031.79 604.303 1040.45 625.457 1040.45 650.842C1040.45 684.275 1027.97 711.621 1003 732.878C978.23 753.929 939.844 764.454 887.836 764.454C834.796 764.454 795.584 753.31 770.199 731.021C745.021 708.525 732.432 679.941 732.432 645.27H821.897C823.755 660.954 827.779 672.099 833.971 678.703C844.909 690.467 865.134 696.349 894.646 696.349C911.982 696.349 925.707 693.769 935.819 688.609C946.138 683.45 951.298 675.711 951.298 665.392C951.298 655.485 947.17 647.952 938.915 642.793C930.66 637.633 900.012 628.759 846.973 616.17C808.792 606.676 781.86 594.81 766.175 580.569C750.49 566.535 742.647 546.31 742.647 519.894C742.647 488.73 754.824 462.004 779.177 439.715C803.736 417.219 838.201 405.972 882.573 405.972C924.675 405.972 959.037 414.33 985.66 431.047Z" fill="white"/>
<path d="M1260.56 690.157V756.096L1218.77 757.644C1177.08 759.088 1148.6 751.865 1133.33 735.974C1123.42 725.861 1118.47 710.279 1118.47 689.229V481.507H1071.41V418.664H1118.47V324.555H1205.76V418.664H1260.56V481.507H1205.76V659.819C1205.76 673.647 1207.52 682.315 1211.03 685.823C1214.54 689.125 1225.27 690.776 1243.22 690.776C1245.91 690.776 1248.69 690.776 1251.58 690.776C1254.68 690.57 1257.67 690.364 1260.56 690.157ZM1533.6 705.326C1532.77 706.358 1530.71 709.454 1527.41 714.613C1524.11 719.773 1520.18 724.313 1515.64 728.234C1501.82 740.617 1488.4 749.079 1475.4 753.619C1462.6 758.16 1447.54 760.43 1430.2 760.43C1380.26 760.43 1346.62 742.475 1329.28 706.564C1319.58 686.752 1314.73 657.549 1314.73 618.956V415.568H1405.13V618.956C1405.13 638.149 1407.4 652.596 1411.94 662.296C1419.99 679.425 1435.78 687.99 1459.3 687.99C1489.43 687.99 1510.07 675.814 1521.22 651.461C1527 638.253 1529.88 620.813 1529.88 599.144V415.568H1619.35V753H1533.6V705.326ZM2011.89 297.312V753H1926.13V706.255C1913.55 726.274 1899.2 740.824 1883.1 749.904C1867.01 758.985 1846.99 763.525 1823.05 763.525C1783.63 763.525 1750.4 747.634 1723.37 715.852C1696.54 683.863 1683.12 642.896 1683.12 592.952C1683.12 535.372 1696.33 490.072 1722.75 457.051C1749.37 424.03 1784.87 407.52 1829.24 407.52C1849.67 407.52 1867.83 412.06 1883.72 421.141C1899.61 430.015 1912.51 442.398 1922.42 458.289V297.312H2011.89ZM1774.14 586.451C1774.14 617.615 1780.33 642.483 1792.71 661.058C1804.89 679.838 1823.46 689.229 1848.43 689.229C1873.4 689.229 1892.39 679.941 1905.39 661.367C1918.4 642.793 1924.9 618.75 1924.9 589.237C1924.9 547.961 1914.47 518.449 1893.63 500.7C1880.83 489.968 1865.97 484.603 1849.05 484.603C1823.25 484.603 1804.27 494.406 1792.09 514.012C1780.12 533.411 1774.14 557.558 1774.14 586.451ZM2183.08 415.568V753H2093.61V415.568H2183.08ZM2183.08 293.907V375.324H2093.61V293.907H2183.08ZM2550.23 458.289C2578.71 493.993 2592.95 536.198 2592.95 584.903C2592.95 634.435 2578.71 676.846 2550.23 712.137C2521.75 747.221 2478.51 764.764 2420.52 764.764C2362.53 764.764 2319.29 747.221 2290.81 712.137C2262.33 676.846 2248.09 634.435 2248.09 584.903C2248.09 536.198 2262.33 493.993 2290.81 458.289C2319.29 422.585 2362.53 404.733 2420.52 404.733C2478.51 404.733 2521.75 422.585 2550.23 458.289ZM2420.21 479.34C2394.41 479.34 2374.5 488.524 2360.46 506.892C2346.63 525.053 2339.72 551.057 2339.72 584.903C2339.72 618.75 2346.63 644.857 2360.46 663.225C2374.5 681.592 2394.41 690.776 2420.21 690.776C2446.01 690.776 2465.82 681.592 2479.65 663.225C2493.47 644.857 2500.39 618.75 2500.39 584.903C2500.39 551.057 2493.47 525.053 2479.65 506.892C2465.82 488.524 2446.01 479.34 2420.21 479.34ZM2916.76 753H2625.45V684.275L2798.5 487.389H2637.22V415.568H2910.88V488.937L2739.69 680.561H2916.76V753Z" fill="black"/>
</svg>
