<svg xmlns="http://www.w3.org/2000/svg" xmlns:xlink="http://www.w3.org/1999/xlink" width="500" zoomAndPan="magnify" viewBox="0 0 375 374.999991" height="500" preserveAspectRatio="xMidYMid meet" version="1.0"><defs><g/><clipPath id="3149785311"><path d="M 46.785156 46.785156 L 328.214844 46.785156 L 328.214844 328.214844 L 46.785156 328.214844 Z M 46.785156 46.785156 " clip-rule="nonzero"/></clipPath><clipPath id="c3d9aef642"><path d="M 187.5 46.785156 C 109.785156 46.785156 46.785156 109.785156 46.785156 187.5 C 46.785156 265.214844 109.785156 328.214844 187.5 328.214844 C 265.214844 328.214844 328.214844 265.214844 328.214844 187.5 C 328.214844 109.785156 265.214844 46.785156 187.5 46.785156 Z M 187.5 46.785156 " clip-rule="nonzero"/></clipPath></defs><rect x="-37.5" width="450" fill="#ffffff" y="-37.499999" height="449.999989" fill-opacity="1"/><rect x="-37.5" width="450" fill="#ffffff" y="-37.499999" height="449.999989" fill-opacity="1"/><g clip-path="url(#3149785311)"><g clip-path="url(#c3d9aef642)"><path fill="#e7eced" d="M 46.785156 46.785156 L 328.214844 46.785156 L 328.214844 328.214844 L 46.785156 328.214844 Z M 46.785156 46.785156 " fill-opacity="1" fill-rule="nonzero"/></g></g><g fill="#424242" fill-opacity="1"><g transform="translate(19.6399, 157.971604)"><g><path d="M 39.78125 0.1875 C 35.34375 0.1875 31.257812 0.109375 27.53125 -0.046875 C 23.8125 -0.203125 20.796875 -0.28125 18.484375 -0.28125 C 17.398438 -0.28125 16.375 -0.265625 15.40625 -0.234375 C 14.445312 -0.203125 13.40625 -0.171875 12.28125 -0.140625 C 11.15625 -0.109375 9.898438 -0.078125 8.515625 -0.046875 C 7.140625 -0.015625 5.488281 0 3.5625 0 L 3.5625 -1.734375 C 4.59375 -1.734375 5.570312 -1.8125 6.5 -1.96875 C 7.425781 -2.132812 8.242188 -2.441406 8.953125 -2.890625 C 9.660156 -3.335938 10.222656 -3.960938 10.640625 -4.765625 C 11.054688 -5.566406 11.265625 -6.644531 11.265625 -8 L 11.265625 -56.4375 C 11.265625 -57.789062 11.054688 -58.867188 10.640625 -59.671875 C 10.222656 -60.472656 9.660156 -61.097656 8.953125 -61.546875 C 8.242188 -61.992188 7.425781 -62.296875 6.5 -62.453125 C 5.570312 -62.617188 4.59375 -62.703125 3.5625 -62.703125 L 3.5625 -64.4375 C 5.488281 -64.4375 7.125 -64.421875 8.46875 -64.390625 C 9.820312 -64.359375 11.039062 -64.304688 12.125 -64.234375 C 13.21875 -64.171875 14.210938 -64.125 15.109375 -64.09375 C 16.015625 -64.0625 17.015625 -64.046875 18.109375 -64.046875 C 19.128906 -64.046875 20.101562 -64.0625 21.03125 -64.09375 C 21.96875 -64.125 22.984375 -64.171875 24.078125 -64.234375 C 25.171875 -64.304688 26.390625 -64.359375 27.734375 -64.390625 C 29.085938 -64.421875 30.726562 -64.4375 32.65625 -64.4375 L 32.65625 -62.703125 C 31.625 -62.703125 30.640625 -62.617188 29.703125 -62.453125 C 28.773438 -62.296875 27.957031 -61.992188 27.25 -61.546875 C 26.550781 -61.097656 25.988281 -60.472656 25.5625 -59.671875 C 25.144531 -58.867188 24.9375 -57.789062 24.9375 -56.4375 L 24.9375 -10.890625 C 24.9375 -8.890625 25.242188 -7.328125 25.859375 -6.203125 C 26.472656 -5.085938 27.351562 -4.238281 28.5 -3.65625 C 29.65625 -3.082031 31.050781 -2.726562 32.6875 -2.59375 C 34.332031 -2.46875 36.179688 -2.40625 38.234375 -2.40625 C 42.921875 -2.40625 46.613281 -3.367188 49.3125 -5.296875 C 52.007812 -7.222656 53.710938 -10.722656 54.421875 -15.796875 L 56.15625 -15.796875 L 55.1875 0 C 52.75 0.0625 50.179688 0.109375 47.484375 0.140625 C 44.785156 0.171875 42.21875 0.1875 39.78125 0.1875 Z M 39.78125 0.1875 "/></g></g></g><g fill="#424242" fill-opacity="1"><g transform="translate(77.230113, 157.971604)"><g><path d="M 61.546875 -23.015625 C 61.546875 -18.710938 60.984375 -15.035156 59.859375 -11.984375 C 58.734375 -8.941406 57.125 -6.457031 55.03125 -4.53125 C 52.945312 -2.601562 50.441406 -1.1875 47.515625 -0.28125 C 44.597656 0.613281 41.3125 1.0625 37.65625 1.0625 C 34.570312 1.0625 31.410156 0.785156 28.171875 0.234375 C 24.929688 -0.304688 21.976562 -1.410156 19.3125 -3.078125 C 16.644531 -4.753906 14.476562 -7.144531 12.8125 -10.25 C 11.144531 -13.363281 10.3125 -17.492188 10.3125 -22.640625 L 10.3125 -56.4375 C 10.3125 -57.789062 10.097656 -58.867188 9.671875 -59.671875 C 9.253906 -60.472656 8.691406 -61.097656 7.984375 -61.546875 C 7.285156 -61.992188 6.46875 -62.296875 5.53125 -62.453125 C 4.601562 -62.617188 3.625 -62.703125 2.59375 -62.703125 L 2.59375 -64.4375 C 4.519531 -64.4375 6.109375 -64.421875 7.359375 -64.390625 C 8.617188 -64.359375 9.726562 -64.304688 10.6875 -64.234375 C 11.65625 -64.171875 12.539062 -64.125 13.34375 -64.09375 C 14.144531 -64.0625 15.09375 -64.046875 16.1875 -64.046875 C 17.207031 -64.046875 18.226562 -64.0625 19.25 -64.09375 C 20.28125 -64.125 21.40625 -64.171875 22.625 -64.234375 C 23.851562 -64.304688 25.1875 -64.359375 26.625 -64.390625 C 28.070312 -64.421875 29.757812 -64.4375 31.6875 -64.4375 L 31.6875 -62.703125 C 30.65625 -62.703125 29.675781 -62.617188 28.75 -62.453125 C 27.820312 -62.296875 27.003906 -61.992188 26.296875 -61.546875 C 25.585938 -61.097656 25.023438 -60.472656 24.609375 -59.671875 C 24.191406 -58.867188 23.984375 -57.789062 23.984375 -56.4375 L 23.984375 -22.640625 C 23.984375 -19.359375 24.238281 -16.460938 24.75 -13.953125 C 25.257812 -11.453125 26.140625 -9.351562 27.390625 -7.65625 C 28.648438 -5.957031 30.351562 -4.65625 32.5 -3.75 C 34.65625 -2.851562 37.367188 -2.40625 40.640625 -2.40625 C 46.546875 -2.40625 51.039062 -4.21875 54.125 -7.84375 C 57.207031 -11.476562 58.75 -16.410156 58.75 -22.640625 L 58.75 -56.4375 C 58.75 -57.789062 58.539062 -58.867188 58.125 -59.671875 C 57.707031 -60.472656 57.144531 -61.097656 56.4375 -61.546875 C 55.726562 -61.992188 54.910156 -62.296875 53.984375 -62.453125 C 53.054688 -62.617188 52.078125 -62.703125 51.046875 -62.703125 L 51.046875 -64.4375 C 52.328125 -64.4375 53.382812 -64.421875 54.21875 -64.390625 C 55.050781 -64.359375 55.789062 -64.320312 56.4375 -64.28125 C 57.082031 -64.25 57.691406 -64.21875 58.265625 -64.1875 C 58.847656 -64.15625 59.492188 -64.140625 60.203125 -64.140625 C 60.898438 -64.140625 61.519531 -64.15625 62.0625 -64.1875 C 62.613281 -64.21875 63.207031 -64.25 63.84375 -64.28125 C 64.488281 -64.320312 65.226562 -64.359375 66.0625 -64.390625 C 66.90625 -64.421875 67.96875 -64.4375 69.25 -64.4375 L 69.25 -62.703125 C 68.21875 -62.703125 67.238281 -62.617188 66.3125 -62.453125 C 65.382812 -62.296875 64.566406 -61.992188 63.859375 -61.546875 C 63.148438 -61.097656 62.585938 -60.472656 62.171875 -59.671875 C 61.753906 -58.867188 61.546875 -57.789062 61.546875 -56.4375 Z M 61.546875 -23.015625 "/></g></g></g><g fill="#424242" fill-opacity="1"><g transform="translate(148.39929, 157.971604)"><g><path d="M 4.53125 -1.734375 C 5.550781 -1.734375 6.523438 -1.8125 7.453125 -1.96875 C 8.390625 -2.132812 9.210938 -2.441406 9.921875 -2.890625 C 10.628906 -3.335938 11.191406 -3.960938 11.609375 -4.765625 C 12.023438 -5.566406 12.234375 -6.644531 12.234375 -8 L 12.234375 -56.25 L 10.109375 -58.9375 C 9.210938 -60.09375 8.234375 -61.007812 7.171875 -61.6875 C 6.117188 -62.363281 4.753906 -62.703125 3.078125 -62.703125 L 3.078125 -64.4375 C 4.234375 -64.4375 5.226562 -64.421875 6.0625 -64.390625 C 6.894531 -64.359375 7.648438 -64.320312 8.328125 -64.28125 C 9.003906 -64.25 9.613281 -64.21875 10.15625 -64.1875 C 10.707031 -64.15625 11.335938 -64.140625 12.046875 -64.140625 C 13.328125 -64.140625 14.929688 -64.1875 16.859375 -64.28125 C 18.785156 -64.382812 20.519531 -64.4375 22.0625 -64.4375 L 59.234375 -18.875 L 59.234375 -56.4375 C 59.234375 -57.789062 59.023438 -58.867188 58.609375 -59.671875 C 58.191406 -60.472656 57.628906 -61.097656 56.921875 -61.546875 C 56.210938 -61.992188 55.390625 -62.296875 54.453125 -62.453125 C 53.523438 -62.617188 52.550781 -62.703125 51.53125 -62.703125 L 51.53125 -64.4375 C 52.8125 -64.4375 53.851562 -64.421875 54.65625 -64.390625 C 55.457031 -64.359375 56.144531 -64.320312 56.71875 -64.28125 C 57.300781 -64.25 57.847656 -64.21875 58.359375 -64.1875 C 58.878906 -64.15625 59.492188 -64.140625 60.203125 -64.140625 C 60.898438 -64.140625 61.550781 -64.15625 62.15625 -64.1875 C 62.769531 -64.21875 63.414062 -64.25 64.09375 -64.28125 C 64.769531 -64.320312 65.554688 -64.359375 66.453125 -64.390625 C 67.347656 -64.421875 68.441406 -64.4375 69.734375 -64.4375 L 69.734375 -62.703125 C 68.703125 -62.703125 67.71875 -62.617188 66.78125 -62.453125 C 65.851562 -62.296875 65.035156 -61.992188 64.328125 -61.546875 C 63.628906 -61.097656 63.070312 -60.472656 62.65625 -59.671875 C 62.238281 -58.867188 62.03125 -57.789062 62.03125 -56.4375 L 62.03125 1.15625 L 59.046875 1.15625 L 15.03125 -53.265625 L 15.03125 -8 C 15.03125 -6.644531 15.238281 -5.566406 15.65625 -4.765625 C 16.070312 -3.960938 16.628906 -3.335938 17.328125 -2.890625 C 18.035156 -2.441406 18.851562 -2.132812 19.78125 -1.96875 C 20.71875 -1.8125 21.703125 -1.734375 22.734375 -1.734375 L 22.734375 0 C 21.441406 0 20.347656 -0.015625 19.453125 -0.046875 C 18.554688 -0.078125 17.753906 -0.109375 17.046875 -0.140625 C 16.335938 -0.171875 15.675781 -0.203125 15.0625 -0.234375 C 14.457031 -0.265625 13.800781 -0.28125 13.09375 -0.28125 C 12.394531 -0.28125 11.785156 -0.265625 11.265625 -0.234375 C 10.753906 -0.203125 10.207031 -0.171875 9.625 -0.140625 C 9.050781 -0.109375 8.378906 -0.078125 7.609375 -0.046875 C 6.835938 -0.015625 5.8125 0 4.53125 0 Z M 4.53125 -1.734375 "/></g></g></g><g fill="#424242" fill-opacity="1"><g transform="translate(221.205636, 157.971604)"><g><path d="M 36.6875 -25.328125 L 18.484375 -25.328125 L 12.515625 -9.046875 C 12.328125 -8.472656 12.164062 -7.910156 12.03125 -7.359375 C 11.90625 -6.816406 11.84375 -6.320312 11.84375 -5.875 C 11.84375 -4.976562 12.019531 -4.253906 12.375 -3.703125 C 12.726562 -3.160156 13.191406 -2.742188 13.765625 -2.453125 C 14.347656 -2.160156 14.992188 -1.96875 15.703125 -1.875 C 16.410156 -1.78125 17.113281 -1.734375 17.8125 -1.734375 L 17.8125 0 C 16.46875 0 15.328125 -0.015625 14.390625 -0.046875 C 13.460938 -0.078125 12.644531 -0.109375 11.9375 -0.140625 C 11.238281 -0.171875 10.597656 -0.203125 10.015625 -0.234375 C 9.441406 -0.265625 8.832031 -0.28125 8.1875 -0.28125 C 7.476562 -0.28125 6.882812 -0.265625 6.40625 -0.234375 C 5.925781 -0.203125 5.394531 -0.171875 4.8125 -0.140625 C 4.238281 -0.109375 3.53125 -0.078125 2.6875 -0.046875 C 1.851562 -0.015625 0.796875 0 -0.484375 0 L -0.484375 -1.734375 C 4.328125 -1.734375 7.632812 -4.140625 9.4375 -8.953125 L 30.71875 -65.6875 L 34.09375 -65.6875 L 56.625 -9.046875 C 57.71875 -6.222656 58.953125 -4.296875 60.328125 -3.265625 C 61.710938 -2.242188 63.5625 -1.734375 65.875 -1.734375 L 65.875 0 C 63.945312 0 62.289062 -0.015625 60.90625 -0.046875 C 59.53125 -0.078125 58.296875 -0.109375 57.203125 -0.140625 C 56.117188 -0.171875 55.109375 -0.203125 54.171875 -0.234375 C 53.242188 -0.265625 52.296875 -0.28125 51.328125 -0.28125 C 50.367188 -0.28125 49.488281 -0.265625 48.6875 -0.234375 C 47.882812 -0.203125 46.96875 -0.171875 45.9375 -0.140625 C 44.914062 -0.109375 43.726562 -0.078125 42.375 -0.046875 C 41.03125 -0.015625 39.328125 0 37.265625 0 L 37.265625 -1.734375 C 38.035156 -1.734375 38.789062 -1.78125 39.53125 -1.875 C 40.269531 -1.96875 40.925781 -2.160156 41.5 -2.453125 C 42.082031 -2.742188 42.566406 -3.144531 42.953125 -3.65625 C 43.335938 -4.175781 43.53125 -4.851562 43.53125 -5.6875 C 43.53125 -6.382812 43.429688 -7.070312 43.234375 -7.75 C 43.046875 -8.425781 42.820312 -9.085938 42.5625 -9.734375 Z M 19.546875 -28.03125 L 35.734375 -28.03125 L 27.546875 -49.59375 Z M 19.546875 -28.03125 "/></g></g></g><g fill="#424242" fill-opacity="1"><g transform="translate(286.596531, 157.971604)"><g><path d="M 3.5625 -64.4375 C 5.488281 -64.4375 7.15625 -64.421875 8.5625 -64.390625 C 9.976562 -64.359375 11.25 -64.34375 12.375 -64.34375 C 13.5 -64.34375 14.523438 -64.320312 15.453125 -64.28125 C 16.390625 -64.25 17.367188 -64.234375 18.390625 -64.234375 C 20.066406 -64.234375 22.171875 -64.3125 24.703125 -64.46875 C 27.242188 -64.632812 29.859375 -64.71875 32.546875 -64.71875 C 35.054688 -64.71875 37.722656 -64.523438 40.546875 -64.140625 C 43.367188 -63.753906 45.984375 -62.984375 48.390625 -61.828125 C 50.804688 -60.671875 52.800781 -59.015625 54.375 -56.859375 C 55.945312 -54.710938 56.734375 -51.875 56.734375 -48.34375 C 56.734375 -46.101562 56.296875 -44.050781 55.421875 -42.1875 C 54.554688 -40.320312 53.398438 -38.695312 51.953125 -37.3125 C 50.515625 -35.9375 48.832031 -34.832031 46.90625 -34 C 44.976562 -33.164062 42.921875 -32.617188 40.734375 -32.359375 C 41.828125 -30.941406 43.191406 -29.175781 44.828125 -27.0625 C 46.472656 -24.945312 48.207031 -22.71875 50.03125 -20.375 C 51.863281 -18.03125 53.742188 -15.648438 55.671875 -13.234375 C 57.597656 -10.828125 59.425781 -8.628906 61.15625 -6.640625 C 62.632812 -4.972656 64.03125 -3.738281 65.34375 -2.9375 C 66.664062 -2.132812 68.128906 -1.734375 69.734375 -1.734375 L 69.734375 0 C 68.316406 0 67.160156 -0.015625 66.265625 -0.046875 C 65.367188 -0.078125 64.582031 -0.109375 63.90625 -0.140625 C 63.226562 -0.171875 62.613281 -0.203125 62.0625 -0.234375 C 61.519531 -0.265625 60.863281 -0.28125 60.09375 -0.28125 C 58.488281 -0.28125 56.851562 -0.234375 55.1875 -0.140625 C 53.519531 -0.046875 51.753906 0 49.890625 0 C 47.898438 -2.5 46.117188 -4.84375 44.546875 -7.03125 C 42.972656 -9.21875 41.429688 -11.351562 39.921875 -13.4375 C 38.410156 -15.519531 36.882812 -17.632812 35.34375 -19.78125 C 33.800781 -21.9375 32.066406 -24.234375 30.140625 -26.671875 C 29.179688 -27.898438 28.410156 -28.707031 27.828125 -29.09375 C 27.253906 -29.476562 26.421875 -29.671875 25.328125 -29.671875 L 24.9375 -29.671875 L 24.9375 -8 C 24.9375 -6.644531 25.144531 -5.566406 25.5625 -4.765625 C 25.988281 -3.960938 26.550781 -3.335938 27.25 -2.890625 C 27.957031 -2.441406 28.773438 -2.132812 29.703125 -1.96875 C 30.640625 -1.8125 31.625 -1.734375 32.65625 -1.734375 L 32.65625 0 C 30.726562 0 29.101562 -0.015625 27.78125 -0.046875 C 26.46875 -0.078125 25.3125 -0.125 24.3125 -0.1875 C 23.320312 -0.25 22.375 -0.296875 21.46875 -0.328125 C 20.570312 -0.367188 19.613281 -0.390625 18.59375 -0.390625 C 17.5 -0.390625 16.46875 -0.367188 15.5 -0.328125 C 14.539062 -0.296875 13.5 -0.25 12.375 -0.1875 C 11.25 -0.125 9.976562 -0.078125 8.5625 -0.046875 C 7.15625 -0.015625 5.488281 0 3.5625 0 L 3.5625 -1.734375 C 4.59375 -1.734375 5.570312 -1.8125 6.5 -1.96875 C 7.425781 -2.132812 8.242188 -2.441406 8.953125 -2.890625 C 9.660156 -3.335938 10.222656 -3.960938 10.640625 -4.765625 C 11.054688 -5.566406 11.265625 -6.644531 11.265625 -8 L 11.265625 -56.4375 C 11.265625 -57.789062 11.054688 -58.867188 10.640625 -59.671875 C 10.222656 -60.472656 9.660156 -61.097656 8.953125 -61.546875 C 8.242188 -61.992188 7.425781 -62.296875 6.5 -62.453125 C 5.570312 -62.617188 4.59375 -62.703125 3.5625 -62.703125 Z M 24.9375 -32.359375 L 29.28125 -32.359375 C 31.71875 -32.359375 33.753906 -32.742188 35.390625 -33.515625 C 37.023438 -34.285156 38.320312 -35.375 39.28125 -36.78125 C 40.25 -38.195312 40.941406 -39.898438 41.359375 -41.890625 C 41.785156 -43.878906 42 -46.097656 42 -48.546875 C 42 -50.273438 41.769531 -51.941406 41.3125 -53.546875 C 40.863281 -55.148438 40.171875 -56.578125 39.234375 -57.828125 C 38.304688 -59.085938 37.117188 -60.101562 35.671875 -60.875 C 34.234375 -61.644531 32.488281 -62.03125 30.4375 -62.03125 C 29.925781 -62.03125 29.347656 -62.007812 28.703125 -61.96875 C 28.054688 -61.9375 27.457031 -61.789062 26.90625 -61.53125 C 26.363281 -61.28125 25.898438 -60.914062 25.515625 -60.4375 C 25.128906 -59.957031 24.9375 -59.300781 24.9375 -58.46875 Z M 24.9375 -32.359375 "/></g></g></g><g fill="#424242" fill-opacity="1"><g transform="translate(31.909925, 271.778375)"><g><path d="M 39.78125 0.1875 C 35.34375 0.1875 31.257812 0.109375 27.53125 -0.046875 C 23.8125 -0.203125 20.796875 -0.28125 18.484375 -0.28125 C 17.398438 -0.28125 16.375 -0.265625 15.40625 -0.234375 C 14.445312 -0.203125 13.40625 -0.171875 12.28125 -0.140625 C 11.15625 -0.109375 9.898438 -0.078125 8.515625 -0.046875 C 7.140625 -0.015625 5.488281 0 3.5625 0 L 3.5625 -1.734375 C 4.59375 -1.734375 5.570312 -1.8125 6.5 -1.96875 C 7.425781 -2.132812 8.242188 -2.441406 8.953125 -2.890625 C 9.660156 -3.335938 10.222656 -3.960938 10.640625 -4.765625 C 11.054688 -5.566406 11.265625 -6.644531 11.265625 -8 L 11.265625 -56.4375 C 11.265625 -57.789062 11.054688 -58.867188 10.640625 -59.671875 C 10.222656 -60.472656 9.660156 -61.097656 8.953125 -61.546875 C 8.242188 -61.992188 7.425781 -62.296875 6.5 -62.453125 C 5.570312 -62.617188 4.59375 -62.703125 3.5625 -62.703125 L 3.5625 -64.4375 C 5.488281 -64.4375 7.125 -64.421875 8.46875 -64.390625 C 9.820312 -64.359375 11.039062 -64.304688 12.125 -64.234375 C 13.21875 -64.171875 14.210938 -64.125 15.109375 -64.09375 C 16.015625 -64.0625 17.015625 -64.046875 18.109375 -64.046875 C 19.128906 -64.046875 20.101562 -64.0625 21.03125 -64.09375 C 21.96875 -64.125 22.984375 -64.171875 24.078125 -64.234375 C 25.171875 -64.304688 26.390625 -64.359375 27.734375 -64.390625 C 29.085938 -64.421875 30.726562 -64.4375 32.65625 -64.4375 L 32.65625 -62.703125 C 31.625 -62.703125 30.640625 -62.617188 29.703125 -62.453125 C 28.773438 -62.296875 27.957031 -61.992188 27.25 -61.546875 C 26.550781 -61.097656 25.988281 -60.472656 25.5625 -59.671875 C 25.144531 -58.867188 24.9375 -57.789062 24.9375 -56.4375 L 24.9375 -10.890625 C 24.9375 -8.890625 25.242188 -7.328125 25.859375 -6.203125 C 26.472656 -5.085938 27.351562 -4.238281 28.5 -3.65625 C 29.65625 -3.082031 31.050781 -2.726562 32.6875 -2.59375 C 34.332031 -2.46875 36.179688 -2.40625 38.234375 -2.40625 C 42.921875 -2.40625 46.613281 -3.367188 49.3125 -5.296875 C 52.007812 -7.222656 53.710938 -10.722656 54.421875 -15.796875 L 56.15625 -15.796875 L 55.1875 0 C 52.75 0.0625 50.179688 0.109375 47.484375 0.140625 C 44.785156 0.171875 42.21875 0.1875 39.78125 0.1875 Z M 39.78125 0.1875 "/></g></g></g><g fill="#424242" fill-opacity="1"><g transform="translate(89.500139, 271.778375)"><g><path d="M 39.203125 -65.59375 C 43.828125 -65.59375 48.222656 -64.804688 52.390625 -63.234375 C 56.566406 -61.660156 60.242188 -59.410156 63.421875 -56.484375 C 66.597656 -53.566406 69.132812 -50.035156 71.03125 -45.890625 C 72.925781 -41.753906 73.875 -37.148438 73.875 -32.078125 C 73.875 -26.867188 72.925781 -22.207031 71.03125 -18.09375 C 69.132812 -13.988281 66.597656 -10.492188 63.421875 -7.609375 C 60.242188 -4.722656 56.566406 -2.507812 52.390625 -0.96875 C 48.222656 0.570312 43.828125 1.34375 39.203125 1.34375 C 34.253906 1.34375 29.660156 0.554688 25.421875 -1.015625 C 21.179688 -2.585938 17.503906 -4.832031 14.390625 -7.75 C 11.285156 -10.675781 8.832031 -14.207031 7.03125 -18.34375 C 5.226562 -22.488281 4.328125 -27.128906 4.328125 -32.265625 C 4.328125 -37.140625 5.207031 -41.613281 6.96875 -45.6875 C 8.738281 -49.769531 11.179688 -53.285156 14.296875 -56.234375 C 17.410156 -59.191406 21.101562 -61.488281 25.375 -63.125 C 29.644531 -64.769531 34.253906 -65.59375 39.203125 -65.59375 Z M 39.203125 -62.984375 C 35.796875 -62.984375 32.835938 -62.113281 30.328125 -60.375 C 27.828125 -58.644531 25.757812 -56.351562 24.125 -53.5 C 22.488281 -50.644531 21.269531 -47.351562 20.46875 -43.625 C 19.664062 -39.90625 19.265625 -36.054688 19.265625 -32.078125 C 19.265625 -27.773438 19.664062 -23.757812 20.46875 -20.03125 C 21.269531 -16.3125 22.488281 -13.066406 24.125 -10.296875 C 25.757812 -7.535156 27.828125 -5.351562 30.328125 -3.75 C 32.835938 -2.144531 35.796875 -1.34375 39.203125 -1.34375 C 42.472656 -1.34375 45.34375 -2.144531 47.8125 -3.75 C 50.289062 -5.351562 52.347656 -7.535156 53.984375 -10.296875 C 55.617188 -13.066406 56.851562 -16.3125 57.6875 -20.03125 C 58.519531 -23.757812 58.9375 -27.773438 58.9375 -32.078125 C 58.9375 -36.179688 58.519531 -40.109375 57.6875 -43.859375 C 56.851562 -47.617188 55.617188 -50.910156 53.984375 -53.734375 C 52.347656 -56.566406 50.289062 -58.816406 47.8125 -60.484375 C 45.34375 -62.148438 42.472656 -62.984375 39.203125 -62.984375 Z M 39.203125 -62.984375 "/></g></g></g><g fill="#424242" fill-opacity="1"><g transform="translate(167.699559, 271.778375)"><g><path d="M 63.65625 -16.5625 C 63.65625 -14.832031 63.671875 -13.050781 63.703125 -11.21875 C 63.742188 -9.382812 63.828125 -7.828125 63.953125 -6.546875 C 61.640625 -6.421875 59.472656 -5.941406 57.453125 -5.109375 C 55.429688 -4.273438 53.359375 -3.390625 51.234375 -2.453125 C 49.117188 -1.523438 46.820312 -0.675781 44.34375 0.09375 C 41.875 0.863281 39.066406 1.25 35.921875 1.25 C 31.234375 1.25 26.960938 0.460938 23.109375 -1.109375 C 19.265625 -2.679688 15.941406 -4.910156 13.140625 -7.796875 C 10.347656 -10.691406 8.179688 -14.144531 6.640625 -18.15625 C 5.097656 -22.164062 4.328125 -26.613281 4.328125 -31.5 C 4.328125 -36.3125 5.226562 -40.800781 7.03125 -44.96875 C 8.832031 -49.144531 11.285156 -52.757812 14.390625 -55.8125 C 17.503906 -58.863281 21.179688 -61.253906 25.421875 -62.984375 C 29.660156 -64.722656 34.1875 -65.59375 39 -65.59375 C 42.40625 -65.59375 45.617188 -65.078125 48.640625 -64.046875 C 51.660156 -63.015625 54.582031 -61.570312 57.40625 -59.71875 L 59.234375 -63.078125 L 60.96875 -63.078125 C 60.90625 -61.921875 60.835938 -60.941406 60.765625 -60.140625 C 60.703125 -59.335938 60.65625 -58.597656 60.625 -57.921875 C 60.59375 -57.253906 60.578125 -56.628906 60.578125 -56.046875 C 60.578125 -55.472656 60.578125 -54.832031 60.578125 -54.125 C 60.578125 -53.289062 60.578125 -52.550781 60.578125 -51.90625 C 60.578125 -51.269531 60.59375 -50.582031 60.625 -49.84375 C 60.65625 -49.101562 60.671875 -48.234375 60.671875 -47.234375 C 60.671875 -46.242188 60.671875 -44.976562 60.671875 -43.4375 L 58.9375 -43.4375 C 58.8125 -46.394531 58.28125 -49.078125 57.34375 -51.484375 C 56.414062 -53.890625 55.132812 -55.941406 53.5 -57.640625 C 51.863281 -59.347656 49.90625 -60.664062 47.625 -61.59375 C 45.34375 -62.519531 42.789062 -62.984375 39.96875 -62.984375 C 37.332031 -62.984375 34.78125 -62.34375 32.3125 -61.0625 C 29.84375 -59.78125 27.644531 -57.820312 25.71875 -55.1875 C 23.789062 -52.550781 22.234375 -49.242188 21.046875 -45.265625 C 19.859375 -41.285156 19.265625 -36.566406 19.265625 -31.109375 C 19.265625 -29.117188 19.359375 -27 19.546875 -24.75 C 19.742188 -22.5 20.082031 -20.265625 20.5625 -18.046875 C 21.039062 -15.835938 21.695312 -13.738281 22.53125 -11.75 C 23.375 -9.757812 24.453125 -7.992188 25.765625 -6.453125 C 27.078125 -4.910156 28.648438 -3.671875 30.484375 -2.734375 C 32.316406 -1.804688 34.484375 -1.34375 36.984375 -1.34375 C 38.785156 -1.34375 40.503906 -1.582031 42.140625 -2.0625 C 43.773438 -2.550781 45.21875 -3.351562 46.46875 -4.46875 C 47.71875 -5.59375 48.695312 -7.070312 49.40625 -8.90625 C 50.113281 -10.738281 50.46875 -13.003906 50.46875 -15.703125 C 50.46875 -18.328125 49.953125 -20.3125 48.921875 -21.65625 C 47.898438 -23.007812 45.65625 -23.6875 42.1875 -23.6875 L 42.1875 -25.421875 C 44.113281 -25.421875 45.765625 -25.40625 47.140625 -25.375 C 48.523438 -25.34375 49.757812 -25.296875 50.84375 -25.234375 C 51.9375 -25.171875 52.960938 -25.125 53.921875 -25.09375 C 54.890625 -25.0625 55.921875 -25.046875 57.015625 -25.046875 C 58.046875 -25.046875 58.992188 -25.0625 59.859375 -25.09375 C 60.722656 -25.125 61.664062 -25.171875 62.6875 -25.234375 C 63.71875 -25.296875 64.890625 -25.34375 66.203125 -25.375 C 67.523438 -25.40625 69.148438 -25.421875 71.078125 -25.421875 L 71.078125 -23.6875 C 68.316406 -23.6875 66.390625 -23.1875 65.296875 -22.1875 C 64.203125 -21.195312 63.65625 -19.320312 63.65625 -16.5625 Z M 63.65625 -16.5625 "/></g></g></g><g fill="#424242" fill-opacity="1"><g transform="translate(240.409615, 271.778375)"><g><path d="M 3.5625 -64.4375 C 5.488281 -64.4375 7.109375 -64.421875 8.421875 -64.390625 C 9.742188 -64.359375 10.898438 -64.304688 11.890625 -64.234375 C 12.890625 -64.171875 13.820312 -64.125 14.6875 -64.09375 C 15.550781 -64.0625 16.53125 -64.046875 17.625 -64.046875 C 18.65625 -64.046875 19.664062 -64.0625 20.65625 -64.09375 C 21.65625 -64.125 22.710938 -64.171875 23.828125 -64.234375 C 24.953125 -64.304688 26.222656 -64.359375 27.640625 -64.390625 C 29.054688 -64.421875 30.726562 -64.4375 32.65625 -64.4375 L 32.65625 -62.703125 C 31.625 -62.703125 30.640625 -62.617188 29.703125 -62.453125 C 28.773438 -62.296875 27.957031 -61.992188 27.25 -61.546875 C 26.550781 -61.097656 25.988281 -60.472656 25.5625 -59.671875 C 25.144531 -58.867188 24.9375 -57.789062 24.9375 -56.4375 L 24.9375 -8 C 24.9375 -6.644531 25.144531 -5.566406 25.5625 -4.765625 C 25.988281 -3.960938 26.550781 -3.335938 27.25 -2.890625 C 27.957031 -2.441406 28.773438 -2.132812 29.703125 -1.96875 C 30.640625 -1.8125 31.625 -1.734375 32.65625 -1.734375 L 32.65625 0 C 30.726562 0 29.054688 -0.015625 27.640625 -0.046875 C 26.222656 -0.078125 24.953125 -0.125 23.828125 -0.1875 C 22.710938 -0.25 21.65625 -0.296875 20.65625 -0.328125 C 19.664062 -0.367188 18.65625 -0.390625 17.625 -0.390625 C 16.53125 -0.390625 15.550781 -0.367188 14.6875 -0.328125 C 13.820312 -0.296875 12.890625 -0.25 11.890625 -0.1875 C 10.898438 -0.125 9.742188 -0.078125 8.421875 -0.046875 C 7.109375 -0.015625 5.488281 0 3.5625 0 L 3.5625 -1.734375 C 4.59375 -1.734375 5.570312 -1.8125 6.5 -1.96875 C 7.425781 -2.132812 8.242188 -2.441406 8.953125 -2.890625 C 9.660156 -3.335938 10.222656 -3.960938 10.640625 -4.765625 C 11.054688 -5.566406 11.265625 -6.644531 11.265625 -8 L 11.265625 -56.4375 C 11.265625 -57.789062 11.054688 -58.867188 10.640625 -59.671875 C 10.222656 -60.472656 9.660156 -61.097656 8.953125 -61.546875 C 8.242188 -61.992188 7.425781 -62.296875 6.5 -62.453125 C 5.570312 -62.617188 4.59375 -62.703125 3.5625 -62.703125 Z M 3.5625 -64.4375 "/></g></g></g><g fill="#424242" fill-opacity="1"><g transform="translate(276.620184, 271.778375)"><g><path d="M 60.578125 -63.078125 C 60.578125 -61.535156 60.5625 -60.054688 60.53125 -58.640625 C 60.5 -57.234375 60.484375 -55.828125 60.484375 -54.421875 C 60.484375 -52.878906 60.53125 -51.113281 60.625 -49.125 C 60.71875 -47.132812 60.765625 -45.269531 60.765625 -43.53125 L 58.84375 -43.53125 C 58.457031 -49.4375 56.644531 -54.15625 53.40625 -57.6875 C 50.164062 -61.21875 45.625 -62.984375 39.78125 -62.984375 C 37.019531 -62.984375 34.398438 -62.328125 31.921875 -61.015625 C 29.453125 -59.703125 27.269531 -57.726562 25.375 -55.09375 C 23.476562 -52.457031 21.984375 -49.164062 20.890625 -45.21875 C 19.804688 -41.269531 19.265625 -36.660156 19.265625 -31.390625 C 19.265625 -28.242188 19.535156 -24.921875 20.078125 -21.421875 C 20.628906 -17.929688 21.640625 -14.707031 23.109375 -11.75 C 24.585938 -8.789062 26.578125 -6.347656 29.078125 -4.421875 C 31.585938 -2.503906 34.832031 -1.546875 38.8125 -1.546875 C 45.363281 -1.546875 50.40625 -3.484375 53.9375 -7.359375 C 57.46875 -11.242188 59.394531 -16.460938 59.71875 -23.015625 L 61.640625 -23.015625 C 61.640625 -22.054688 61.625 -21.015625 61.59375 -19.890625 C 61.5625 -18.765625 61.53125 -17.65625 61.5 -16.5625 C 61.46875 -15.46875 61.429688 -14.441406 61.390625 -13.484375 C 61.359375 -12.523438 61.34375 -11.753906 61.34375 -11.171875 C 61.34375 -10.523438 61.34375 -9.910156 61.34375 -9.328125 C 61.34375 -8.753906 61.359375 -8.113281 61.390625 -7.40625 C 61.429688 -6.707031 61.46875 -5.875 61.5 -4.90625 C 61.53125 -3.945312 61.578125 -2.757812 61.640625 -1.34375 L 59.90625 -1.34375 L 57.6875 -5.109375 C 57.113281 -4.660156 56.265625 -4.082031 55.140625 -3.375 C 54.015625 -2.664062 52.664062 -1.972656 51.09375 -1.296875 C 49.519531 -0.617188 47.6875 -0.0390625 45.59375 0.4375 C 43.507812 0.914062 41.21875 1.15625 38.71875 1.15625 C 33.90625 1.15625 29.410156 0.4375 25.234375 -1 C 21.054688 -2.445312 17.425781 -4.566406 14.34375 -7.359375 C 11.269531 -10.160156 8.832031 -13.644531 7.03125 -17.8125 C 5.226562 -21.988281 4.328125 -26.835938 4.328125 -32.359375 C 4.328125 -36.921875 5.226562 -41.207031 7.03125 -45.21875 C 8.832031 -49.226562 11.285156 -52.742188 14.390625 -55.765625 C 17.503906 -58.785156 21.148438 -61.175781 25.328125 -62.9375 C 29.503906 -64.707031 34 -65.59375 38.8125 -65.59375 C 42.28125 -65.59375 45.519531 -65.09375 48.53125 -64.09375 C 51.550781 -63.101562 54.441406 -61.675781 57.203125 -59.8125 L 58.84375 -63.078125 Z M 60.578125 -63.078125 "/></g></g></g></svg>